HIERARCHY
ROOT RootJoint
{
    OFFSET   0.000000   0.000000   0.000000
    CHANNELS 6 Xposition Yposition Zposition Xrotation Yrotation Zrotation
    JOINT pelvis_lowerback
    {
        OFFSET   0.000000   0.093605   0.000000
        CHANNELS 3 Xrotation Yrotation Zrotation
        JOINT lowerback_torso
        {
            OFFSET   0.000000   0.100000   0.000000
            CHANNELS 3 Xrotation Yrotation Zrotation
            JOINT torso_head
            {
                OFFSET   0.000000   0.282350   0.000000
                CHANNELS 3 Xrotation Yrotation Zrotation
                End Site
                {
                    OFFSET   0.000000   0.192650   0.000000
                }
            }
            JOINT rTorso_Clavicle
            {
                OFFSET  -0.001000   0.157500   0.000000
                CHANNELS 3 Xrotation Yrotation Zrotation
                JOINT rShoulder
                {
                    OFFSET  -0.117647   0.000000   0.000000
                    CHANNELS 3 Xrotation Yrotation Zrotation
                    JOINT rElbow
                    {
                        OFFSET  -0.245000   0.000000   0.000000
                        CHANNELS 3 Xrotation Yrotation Zrotation
                        JOINT rWrist
                        {
                            OFFSET  -0.240000   0.000000   0.000000
                            CHANNELS 3 Xrotation Yrotation Zrotation
                            End Site
                            {
                                OFFSET  -0.116353  -0.002500   0.000000
                            }
                        }
                    }
                }
            }
            JOINT lTorso_Clavicle
            {
                OFFSET   0.001000   0.157500   0.000000
                CHANNELS 3 Xrotation Yrotation Zrotation
                JOINT lShoulder
                {
                    OFFSET   0.117647   0.000000   0.000000
                    CHANNELS 3 Xrotation Yrotation Zrotation
                    JOINT lElbow
                    {
                        OFFSET   0.245000   0.000000   0.000000
                        CHANNELS 3 Xrotation Yrotation Zrotation
                        JOINT lWrist
                        {
                            OFFSET   0.240000   0.000000   0.000000
                            CHANNELS 3 Xrotation Yrotation Zrotation
                            End Site
                            {
                                OFFSET   0.116353  -0.002500   0.000000
                            }
                        }
                    }
                }
            }
        }
    }
    JOINT rHip
    {
        OFFSET  -0.100000  -0.051395   0.000000
        CHANNELS 3 Xrotation Yrotation Zrotation
        JOINT rKnee
        {
            OFFSET   0.000000  -0.410000   0.000000
            CHANNELS 3 Xrotation Yrotation Zrotation
            JOINT rAnkle
            {
                OFFSET   0.000000  -0.390000   0.000000
                CHANNELS 3 Xrotation Yrotation Zrotation
                JOINT rToeJoint
                {
                    OFFSET   0.000000  -0.050000   0.130000
                    CHANNELS 3 Xrotation Yrotation Zrotation
                    End Site
                    {
                        OFFSET  -0.010000   0.002000   0.060000
                    }
                }
            }
        }
    }
    JOINT lHip
    {
        OFFSET   0.100000  -0.051395   0.000000
        CHANNELS 3 Xrotation Yrotation Zrotation
        JOINT lKnee
        {
            OFFSET   0.000000  -0.410000   0.000000
            CHANNELS 3 Xrotation Yrotation Zrotation
            JOINT lAnkle
            {
                OFFSET   0.000000  -0.390000   0.000000
                CHANNELS 3 Xrotation Yrotation Zrotation
                JOINT lToeJoint
                {
                    OFFSET   0.000000  -0.050000   0.130000
                    CHANNELS 3 Xrotation Yrotation Zrotation
                    End Site
                    {
                        OFFSET   0.010000   0.002000   0.060000
                    }
                }
            }
        }
    }
}
MOTION
Frames: 15
Frame Time:   0.008333
 -2.376719   0.925631   3.975860   0.000000   0.000000   0.000000   0.000000   0.000000   0.000000   0.000000   0.000000   0.000000   0.000000   0.000000   0.000000   0.000000   0.000000   0.000000   0.000000   0.000000   0.000000   0.000000   0.000000   0.000000   0.000000   0.000000   0.000000   0.000000   0.000000   0.000000   0.000000   0.000000   0.000000   0.000000   0.000000   0.000000   0.000000   0.000000   0.000000   0.000000   0.000000   0.000000   0.000000   0.000000   0.000000   0.000000   0.000000   0.000000   0.000000   0.000000   0.000000   0.000000   0.000000   0.000000   0.000000   0.000000   0.000000   0.000000   0.000000   0.000000   0.000000   0.000000   0.000000
 -2.376624   0.926327   3.975423   0.243895   0.012771   0.012686  -0.311725   0.028418  -0.005929   0.172620  -0.155706   0.000357  -0.132025   0.149985   0.076681   0.151624  -0.349423   0.428764   0.605408   0.236326   2.059834   0.023469   1.072369  -0.008223   0.352909  -0.352898  -2.892907   0.203623   0.281794  -0.678218   0.998157   0.050437  -1.890574   0.017422  -0.776435   0.008944   0.392071   0.083311   3.060669  -0.714939   0.357894  -0.213400   1.229161   0.002210   0.003942  -1.047938   0.018129   0.068098  -0.111210  -0.000126  -0.000378  -0.818888  -0.126532   0.178166   1.696962  -0.002862  -0.001631  -1.305591   0.192033   0.062859   0.235017  -0.000518   0.000159
 -2.376549   0.927471   3.975174   0.418306  -0.000673   0.030489  -0.599393   0.053499  -0.014565   0.371814  -0.309489  -0.007744  -0.242229   0.292353   0.160858   0.302410  -0.666676   1.606100   1.184915   0.519559   4.720876   0.054045   2.111542  -0.014015   0.736965  -0.396920  -5.038939   0.411968   0.539399  -2.136074   1.975584   0.055496  -4.418360   0.040053  -1.519422   0.015497   0.827964  -0.004510   5.370407  -1.361238   0.717388  -0.581268   2.501597   0.005910   0.006778  -2.026353   0.035861   0.132327  -0.258349  -0.000471  -0.000769  -1.530444  -0.249611   0.518226   3.474466  -0.007998  -0.003042  -2.520423   0.374354   0.127269   0.415148  -0.001080   0.000208
 -2.376517   0.928613   3.975097   0.576715  -0.034054   0.053775  -0.888029   0.073782  -0.033423   0.551166  -0.455765  -0.031570  -0.343106   0.424727   0.245070   0.450150  -0.946380   3.240757   1.736322   0.836950   7.778296   0.083659   3.086511  -0.017392   1.111817  -0.355921  -6.309699   0.614500   0.760140  -4.071690   2.913555   0.003254  -7.309835   0.061918  -2.216043   0.019760   1.253000  -0.141465   6.742299  -1.960995   1.057721  -1.071667   3.706431   0.010018   0.008182  -2.939167   0.049286   0.191821  -0.398765  -0.000884  -0.001002  -2.151672  -0.367987   0.991312   5.172502  -0.013997  -0.003821  -3.652581   0.545688   0.192238   0.579064  -0.001671   0.000218
 -2.376555   0.929416   3.975154   0.731663  -0.080533   0.082411  -1.176717   0.088529  -0.069183   0.703006  -0.596161  -0.079030  -0.439267   0.547879   0.328385   0.597800  -1.198456   5.139778   2.259587   1.183794  11.092049   0.108683   3.996877  -0.018981   1.470574  -0.292038  -6.914426   0.811077   0.950844  -6.300934   3.784463  -0.103922 -10.320378   0.080176  -2.868908   0.022209   1.662411  -0.306654   7.362762  -2.524838   1.380591  -1.656743   4.831470   0.013911   0.008544  -3.791916   0.059010   0.246795  -0.534694  -0.001314  -0.001129  -2.700484  -0.483701   1.573075   6.772160  -0.020003  -0.003955  -4.709595   0.706338   0.257122   0.723419  -0.002195   0.000211
 -2.376629   0.929614   3.975314   0.884365  -0.136025   0.111577  -1.461977   0.097714  -0.115721   0.830538  -0.731715  -0.132893  -0.530944   0.662527   0.402765   0.748711  -1.429723   7.218899   2.729468   1.539001  14.409828   0.127204   4.846020  -0.019127   1.811991  -0.219471  -6.982998   1.001202   1.117973  -8.677643   4.589987  -0.258990 -13.343867   0.093846  -3.480613   0.023388   2.054392  -0.491580   7.467620  -3.056033   1.688513  -2.313686   5.879786   0.017314   0.008212  -4.588626   0.065899   0.297658  -0.665434  -0.001725  -0.001181  -3.187074  -0.598282   2.241105   8.275452  -0.025435  -0.003569  -5.696783   0.856748   0.321481   0.849891  -0.002604   0.000197
 -2.376718   0.929018   3.975550   1.033557  -0.199366   0.140359  -1.740752   0.101370  -0.168130   0.938572  -0.863484  -0.189874  -0.617771   0.769377   0.470314   0.903592  -1.646710   9.364855   3.150308   1.894523  17.653538   0.139149   5.636625  -0.018319   2.134859  -0.149934  -6.710617   1.184884   1.267212 -11.098112   5.332420  -0.452557 -16.309770   0.102896  -4.053357   0.023693   2.428488  -0.689534   7.239731  -3.556344   1.983531  -3.025097   6.856693   0.020097   0.007438  -5.332835   0.070560   0.344696  -0.789766  -0.002088  -0.001178  -3.618469  -0.712390   2.973631   9.687372  -0.029996  -0.002839  -6.618681   0.997282   0.384853   0.961682  -0.002896   0.000181
 -2.376829   0.926935   3.975523   1.214372  -0.316562   0.097505  -1.955762   0.139531  -0.126962   1.006479  -0.952819  -0.245390  -0.774764   0.726576   0.498381   1.119699  -1.707637  10.884842   3.625225   2.149359  20.640703   0.147405   6.539351  -0.019600   2.352953  -0.097380  -5.412857   1.336039   1.428131 -12.697023   5.889888  -0.702582 -19.323578   0.107908  -4.667555   0.023367   2.769431  -0.984731   5.970244  -4.161728   2.076308  -3.597115   8.006867   0.022510   0.004286  -5.924932   0.035769   0.609127  -0.793926  -0.001683  -0.000940  -3.985751  -0.658273   3.744389  10.498613  -0.029123  -0.001327  -7.382737   1.256742   0.329434   1.127773  -0.003275   0.000534
 -2.376934   0.923606   3.975337   1.392575  -0.393231   0.043566  -2.124813   0.169671  -0.077900   1.078692  -1.034795  -0.290257  -0.925762   0.680253   0.523362   1.310949  -1.735361  12.087366   4.050555   2.421168  23.281224   0.147145   7.390627  -0.020347   2.570727   0.003358  -4.249379   1.468827   1.560628 -13.974271   6.393721  -0.966329 -21.996680   0.107156  -5.247677   0.022654   3.093612  -1.329003   4.799114  -4.721385   2.152350  -4.105960   9.106264   0.023589   0.001984  -6.473140  -0.001000   0.855691  -0.777275  -0.001297  -0.000763  -4.391498  -0.609891   4.471726  11.163772  -0.027136  -0.000060  -8.100215   1.501245   0.281533   1.277971  -0.003417   0.000815
 -2.377023   0.919172   3.975066   1.560215  -0.442535  -0.010541  -2.258912   0.203672  -0.029903   1.159326  -1.105506  -0.329806  -1.063699   0.636667   0.546857   1.478540  -1.744060  13.062162   4.429801   2.699145  25.638836   0.141672   8.190159  -0.020611   2.782608   0.125528  -3.341216   1.586606   1.674317 -15.019664   6.850348  -1.232034 -24.384339   0.102795  -5.790814   0.021565   3.401348  -1.673719   3.879069  -5.219251   2.226416  -4.566726  10.139667   0.023646   0.000431  -6.984024  -0.037057   1.085524  -0.758377  -0.000988  -0.000620  -4.827201  -0.571048   5.143133  11.749891  -0.024775   0.000923  -8.771300   1.729617   0.239770   1.414583  -0.003394   0.001013
 -2.377098   0.913734   3.974756   1.716471  -0.474596  -0.062828  -2.367130   0.245879   0.016162   1.245743  -1.161726  -0.365612  -1.189347   0.596071   0.568642   1.626219  -1.741141  13.865524   4.768561   2.975858  27.761484   0.133184   8.939512  -0.020479   2.986842   0.256606  -2.643465   1.694083   1.778977 -15.889102   7.266258  -1.490907 -26.534510   0.096330  -6.297004   0.020167   3.692247  -2.000550   3.170179  -5.657299   2.298000  -4.983608  11.110319   0.022987  -0.000606  -7.460366  -0.072106   1.299809  -0.739071  -0.000744  -0.000504  -5.281278  -0.541143   5.757954  12.275073  -0.022299   0.001630  -9.398373   1.942693   0.203275   1.540046  -0.003264   0.001137
 -2.377161   0.913048   3.974771   1.704809  -0.562093  -0.162955  -2.384779   0.321293   0.100148   1.393102  -1.183766  -0.382873  -1.295246   0.559272   0.591882   1.751647  -1.708239  14.865075   5.066269   3.258418  29.784464   0.125402   9.628551  -0.019846   3.181819   0.324217  -2.169682   1.789546   1.871614 -16.952524   7.640162  -1.750340 -28.586682   0.090210  -6.757077   0.018559   3.963343  -2.220299   2.675388  -6.223466   2.384015  -4.890748  12.247916   0.018676  -0.001386  -7.915818  -0.017193   1.803703  -0.686590  -0.000809  -0.000403  -5.776345  -0.503769   5.908966  13.318482  -0.018209   0.001889  -9.739487   2.056012  -0.104872   0.922654  -0.004004   0.000198
 -2.377251   0.912493   3.975157   1.695621  -0.575131  -0.214352  -2.456699   0.375823   0.127607   1.519683  -1.210935  -0.408513  -1.388405   0.523721   0.611859   1.887815  -1.702543  15.663333   5.345431   3.522993  31.683586   0.116174  10.279893  -0.018818   3.368020   0.434739  -1.555415   1.897457   1.983350 -17.790129   7.991805  -1.989497 -30.496010   0.083216  -7.191347   0.016632   4.222981  -2.475287   2.061444  -6.637265   2.444154  -4.831682  13.164047   0.015036  -0.001278  -8.350863  -0.025003   2.025295  -0.644849  -0.000724  -0.000322  -6.123724  -0.440987   5.996675  14.101154  -0.014647   0.002417 -10.151897   2.246684  -0.153433   1.110667  -0.003171   0.000642
 -2.377330   0.912143   3.975574   1.732166  -0.605371  -0.220294  -2.453743   0.473982   0.056504   1.510613  -1.210759  -0.365863  -1.495962   0.445637   0.629374   1.997675  -1.752030  16.094899   5.569147   3.750679  33.132806   0.103376  10.887579  -0.017248   3.485159   0.656862  -0.343650   2.036722   2.109710 -18.157606   8.270002  -2.204810 -32.131131   0.077296  -7.761976   0.014940   4.444178  -2.757030   0.862410  -6.962802   2.471962  -4.821957  13.796840   0.012049  -0.001332  -8.655329   0.008030   2.176680  -0.566603  -0.000676  -0.000256  -6.336664  -0.310535   6.033444  14.503945  -0.011695   0.002461 -10.360851   2.357131  -0.122441   1.160727  -0.002557   0.000619
 -2.377402   0.911881   3.975910   1.822917  -0.623165  -0.202621  -2.448821   0.572805  -0.029872   1.476960  -1.205115  -0.329967  -1.604871   0.372059   0.646292   2.079473  -1.790635  16.243561   5.766174   3.960534  34.303527   0.089681  11.456535  -0.015806   3.592658   0.881214   0.615357   2.156861   2.220856 -18.246447   8.524211  -2.400058 -33.483052   0.069272  -8.297856   0.013263   4.651215  -3.067748  -0.113235  -7.286839   2.484518  -4.838582  14.304149   0.009652  -0.001294  -8.906334   0.022559   2.295579  -0.447518  -0.000654  -0.000222  -6.551935  -0.187064   6.043561  14.789346  -0.009332   0.002321 -10.572003   2.459140  -0.090123   1.310912  -0.002100   0.000794
